<?xml version="1.0" encoding="UTF-8"?>
<svg id="Layer_1" data-name="Layer 1" xmlns="http://www.w3.org/2000/svg" viewBox="0 0 300 300">
  <defs>
    <style>
      .cls-1 {
        fill-rule: evenodd;
      }

      .cls-1, .cls-2 {
        fill: #fff;
      }

      .cls-3 {
        stroke-linecap: round;
        stroke-linejoin: round;
        stroke-width: 8.12px;
      }

      .cls-3, .cls-4 {
        fill: none;
        stroke: #fff;
      }

      .cls-4 {
        stroke-width: 2px;
      }
    </style>
  </defs>
  <g id="g9244">
    <path id="path3159" class="cls-1" d="M101.3,156.99c-7.61,10.4-2.12,17.17,5.73,17.65,5.17.35,15.93-6.66,15.9-14.9l-2.94-1.5c1.65,4.23-.06,5.56-3.56,8.45-6.91,5.7-21.01,6.1-15.14-9.71Z"/>
    <path id="path3115" class="cls-1" d="M161.64,184.27c42.85,1.1,56.49-36.64,30.04-68.94l-2.62,3.56c1.7,15.06,4.17,29.9,4.41,45.33-5.17,5.54-12.7,3.48-14.2-2.67.09-8.34-2.91-15.4-6.7-22.14l-2.12,3.56c2.47,5.54,5.14,11.77,5.7,18.59-12.23,13.34-25.75,16.05-20.72-1.5-9.67,15.38,4.97,26.21,21.54,2.54,3.56,16.15,17.31,6.12,18.13,2.65,1.5-10.59.73-27.65-2.29-41.13,11.93,18.8,12.34,32.36,6,41.42-7.05,10.08-22.39,14.79-37.18,18.75h0Z"/>
    <path id="path3117" class="cls-1" d="M185.94,141.62c-9.17.62-13.87-1.1-8.91-7.27,4.91-6.04,9.49-1.23,10.73,6.85,1.15,7.57-16.11,17.22-22.07,17.22-9.02,0-13.2-10.56-4.88-20.06-10.7,27.7,23.1,11.63,25.13,3.26ZM179.6,135.2c-1.12-.05-1.94,1.74-1.38,2.09,1.62,1.02,4.17.4,4.44-.11.56-1.12-1.5-1.93-3.06-1.98h0Z"/>
    <path id="path3140" class="cls-1" d="M136.16,154.69c-8.82,15.78-.03,22.3,11.29,20.48,6.58-1.1,14.93-5.35,19.75-11.15.09-12.78-.12-25.46-1.35-37.84,4.41-4.79-.38-4.76-2.06-9.89-.76,3-2.62,6.23-.82,8.56,1.26,12.49,1.97,25.14,1.94,38.03-8.88,6.5-15.55,8.91-20.31,8.85-9.85-.08-11.96-7.62-8.43-17.03h0Z"/>
    <path id="path3150" class="cls-1" d="M154.17,158.87c-.15-11.9-.35-25.4-1.53-33.72,4.58-4.63-.24-4.73-1.73-9.92-.88,2.94-2.82,6.15-1.12,8.53.76,12.73,1.5,25.46,1.65,38.19,1.06-.62,2.26-.86,2.73-3.08h0Z"/>
    <path id="path3152" class="cls-1" d="M119.96,158.3c-1.12-1.28-1.91-2.73-2.82-3.98-.15-1.79,1.18-3.45,1.35-4.36,1.5,2.11,2.38,3.72,3.59,4.76M123.67,155.55c2.2.8,4.91.8,7.41.86,9.64.16,19.78-1.28,18.69,10.59-.94,10.54-10.55,16.63-19.16,16.55-12.26-.11-22.72-12.41-3.82-35.06,1.82-.27,4.2.19,6.17.35,3.38.24,6.85-.05,10.82-2.94-.47-7.46-.47-14.52-1.47-21.26-1.7-2.38.24-5.56,1.12-8.53,1.5,5.19,6.29,5.29,1.73,9.95,1.09,7.49,1.2,15.11,1.2,19.66-2.29,3.18-4.09,6.55-10.79,7.84-6.85-.91-9.93-9.63-17.08-6.74,1.97-7.86,20.1-9.65,21.92-3.45-1.2,6.47-18.13,3.88-22.63,24.79-1.38,6.44,6.08,12.38,13.75,11.9,7.49-.45,15.49-5.19,16.28-13.16.62-6.66-9.7-5.88-14.02-5.8-6.29.13-10.26-.75-12.64-2.01M127.61,144.67c1.12-.96,5.03-1.63,6.44-.08-1.06.64-2.09,1.34-2.94,2.17-1.47-.7-2.44-1.39-3.5-2.09Z"/>
    <path id="path3161" class="cls-1" d="M137.19,122.55c1.06,2.14,1.5,3.56,1.56,5.62-.65,2.78-3.26,5.38-5.97,5.46-1.68.05-3.56-.37-4.88-2.75-.15-.29-.85-.99-1.53-.67-2.97,4.44-5.17,6.31-7.85,6.28-5.35-.08-3.76-4.41-8.7-5.75-2.06-.05-5.44,1.85-7.17,5.56-6.58,16.98-12.58-.05-10.02-7.97.38,7.57,2.38,12.06,4.44,11.93,1.5-.13,2.82-3.29,4.73-6.61,1.47-2.54,5-7.11,8.73-7.11,3.41.08,1.26,5.78,8.08,5.7,3.29-.05,6.32-2.35,9.38-6.95.68-.11.85.99,1,1.36.47,1.58,3.47,5.91,7.52,1.95-.21-.86-.12-2.27-1.15-2.57l1.82-3.48Z"/>
    <path id="path3163" class="cls-1" d="M158.61,108.48c-3.61,1.63-6.26.13-7.76-1.31,2.62-.48,4.64-1.34,5.23-3.21-1.18-2.41-3.97-3.45-7.91-3.48-5.26.13-7.96,2.06-8.29,4.71,2.44.08,4.64-.53,5.58,1.6-4.32,1.93-9.4,2.62-14.93,2.59-9.05.43-10.37-3.29-12.76-6.55-.18-.21-.97-.56-1.38-.51-2.79,0-4.85,8.88-7.99,8.85-3.14-.37-2.44-5.72-3.35-8.77-.76,4.79.97,22.6,10.7,3.26.29-.64.71-.45.97.08,2.62,5.4,7.94,7.27,13.67,7.54,4.79.24,10.9-1.66,17.46-5.03,1.73,1.74,3.12,3.72,6.76,4.09,4.26.19,8.82-2.62,9.85-6.1.53-1.79.62-5.32-1.47-5.38-2.91-.08-5.03,6.34-4.35,12.11.06-.08.38-1.44.38-1.44M146.15,103.86c1.91-.8,3.76-1.18,5.23.59-1.15.37-1.85.62-2.47,1.07-.82-.59-1.94-.88-2.76-1.66ZM160.2,107.84c.47-1.9.73-3.42,2.44-4.41.35,2.01.41,3.13-2.44,4.41Z"/>
    <path id="path3169" class="cls-1" d="M171.66,110.78c-.56-1.63-1.12-3.05-1.29-4.81-.41-3.58,2.97-5.62,6.02-5.32,3.14.29,5.23,1.36,8.23,2.3,2.35.72,5.53,1.28,8.55,2.06,1.7.7,0,2.51-.44,2.75-7.58,2.7-12.96,6.98-17.78,7.17-2.88.13-5.44-1.58-7.76-5.08-.15-6.79-.41-14.76-1.15-19.76,1.12-1.02,1.35-1.76,1.88-2.59.59,6.61.82,13.56.97,20.56.62,1.2,1.38,2.22,2.76,2.73h0ZM176.51,111.32c-4.06,1.04-3.56-2.09-3.94-4.01-.44-2.25-.15-4.79,3-4.14,4.09.99,7.82,2.3,11.43,3.69l-10.49,4.47Z"/>
    <path id="path3173" class="cls-1" d="M172.54,114.63l.56,2.49h.44l-.18-2.33"/>
    <path id="path5196" class="cls-1" d="M107.86,140.63l2.06-1.93,2.38,1.85-2.2,1.79-2.23-1.71Z"/>
    <path id="path6168" class="cls-1" d="M113.09,139.99l2.09-1.93,2.38,1.85-2.2,1.79-2.26-1.71Z"/>
    <path id="path6170" class="cls-1" d="M98.54,120.04l2.09-1.93,2.38,1.85-2.2,1.79-2.26-1.71Z"/>
    <path id="path6172" class="cls-1" d="M99.48,125.71l2.09-1.93,2.35,1.85-2.2,1.79-2.23-1.71Z"/>
    <path id="path6174" class="cls-1" d="M137.25,135.2l1.91-1.42,1.76,1.74-2,1.28-1.68-1.6Z"/>
    <path id="path6176" class="cls-1" d="M112.03,98.91l1.35-1.26,1.56,1.2-1.44,1.18-1.47-1.12Z"/>
    <path id="path6178" class="cls-1" d="M115.47,98.51l1.35-1.28,1.56,1.23-1.44,1.15-1.47-1.1Z"/>
    <path id="path6180" class="cls-1" d="M187.65,112.87l-1.29.99-1.23-1.15,1.35-.91,1.18,1.07Z"/>
    <path id="path9240" class="cls-1" d="M126.81,148.36l-.15,2.11,3.7.32,2.97-2.03-6.52-.4h0Z"/>
    <path id="path9242" class="cls-1" d="M158.11,108.89l1.09-.21-.12,2.75-.68.24-.29-2.78h0Z"/>
  </g>
  <path id="path2722" class="cls-2" d="M150,219.77c41.72,0,75.67-30.89,75.67-68.84,0-20.89-10.24-39.52-26.36-52.12,9.67,10.35,15.55,23.99,15.55,38.83,0,32.96-29.02,59.71-64.86,59.71s-64.86-26.74-64.86-59.71c0-14.84,5.88-28.47,15.55-38.83-16.12,12.6-26.36,31.23-26.36,52.12,0,37.96,33.95,68.84,75.67,68.84h0Z"/>
  <path id="path2910" class="cls-4" d="M139.76,258.07c-16.69,7.59-37.55,5.52-55.18-4.83-.76-.35-1.14.17-.38,2.07,1.9,5,3.41,8.97-2.28,16.39-2.47,3.28.38,3.8,4.55,3.45,21.24-1.9,42.1-6.21,52.15-9.84l1.14-7.25Z"/>
  <path id="path2912" class="cls-4" d="M139.38,267.04c-6.64,2.42-18.02,5.35-30.72,7.42-5.12.69-4.93,3.62,4.17,4.66,9.29.86,21.24-5.18,28.44-10.53l-1.9-1.55Z"/>
  <path id="path2914" class="cls-4" d="M150,250.47c2.28,0,6.45-.86,10.62-1.38,7.77-1.21,2.09,9.66-10.62,9.66v3.62c12.9,0,26.36-12.77,23.51-18.46-3.98-8.28-14.98-1.21-23.51-1.21s-19.53-7.07-23.51,1.21c-2.84,5.69,10.62,18.46,23.51,18.46v-3.62c-12.71,0-18.39-10.87-10.62-9.66,4.17.52,8.34,1.38,10.62,1.38Z"/>
  <path id="path2916" class="cls-4" d="M160.24,258.07c16.69,7.59,37.55,5.52,55.18-4.83.76-.35,1.14.17.38,2.07-1.9,5-3.41,8.97,2.28,16.39,2.47,3.28-.38,3.8-4.55,3.45-21.24-1.9-42.1-6.21-52.15-9.84l-1.14-7.25Z"/>
  <path id="path2918" class="cls-4" d="M160.62,267.04c6.64,2.42,17.83,5.35,30.72,7.42,5.12.69,4.93,3.62-4.17,4.66-9.29.86-21.24-5.18-28.44-10.53l1.9-1.55Z"/>
  <path id="path2734" class="cls-4" d="M188.5,55.66c-5.31-16.91-17.64-14.15-21.24-16.22-3.6-2.07-3.98-1.55-3.22,2.24,1.52,6.73,14.22,14.15,20.48,16.39,2.28.69,5.12,1.73,3.98-2.42Z"/>
  <path id="path2736" class="cls-4" d="M186.03,58.6c-14.79-10.87-26.36-2.76-30.91-3.97-3.41-.86-1.9,1.21-.57,2.07,9.48,6.04,21.24,9.32,30.34,5.52,3.6-1.38,3.79-1.73,1.14-3.62Z"/>
  <path id="path2738" class="cls-4" d="M218.08,69.64c.19-10.7-24.08-15.18-29.2-21.74-3.03-3.97-5.69-1.9-4.17,4.49,2.28,8.28,18.96,17.43,28.07,19.15,5.5,1.04,5.31-.69,5.31-1.9Z"/>
  <path id="path2740" class="cls-4" d="M217.32,71.54c-15.36-12.6-28.26-8.45-33-9.66-4.74-1.04-6.64,1.55.76,6.73,9.1,6.21,23.14,7.42,29.01,6.21,5.88-1.21,4.36-2.42,3.22-3.28Z"/>
  <path id="path2742" class="cls-4" d="M244.82,90c-4.36-18.29-18.2-22.09-21.62-25.54-3.22-3.45-6.64-2.42-3.79,5.87,3.41,9.84,14.6,18.46,20.48,20.53,5.69,2.24,5.31.52,4.93-.86Z"/>
  <path id="path2744" class="cls-4" d="M244.63,92.42c-11.19-16.39-25.79-15.87-30.34-18.12-4.36-2.42-7.4-.35-1.52,6.73,6.83,8.63,20.86,13.46,27.31,13.8s5.31-1.21,4.55-2.42Z"/>
  <path id="path2746" class="cls-4" d="M259.04,111.92c6.45-18.64-8.34-25.54-9.86-28.64-1.71-3.11-3.41-3.11-4.36.17-4.17,13.29,9.29,26.23,11.38,28.82,2.09,2.42,2.47,1.21,2.84-.35Z"/>
  <path id="path2748" class="cls-4" d="M256.01,117.09c-5.12-20.88-18.58-19.67-21.62-22.6-3.22-2.93-3.6-.86-3.03,2.93,1.52,10.18,14.98,17.08,21.05,20.53,1.9,1.04,4.17,2.24,3.6-.86Z"/>
  <path id="path2750" class="cls-4" d="M268.9,141.59c9.29-19.67-1.71-32.96-5.12-35.89-3.41-2.76-5.5-3.97-4.36,0,1.52,6.04-3.79,21.57,4.36,32.96,2.65,3.8,3.03,7.42,5.12,2.93Z"/>
  <path id="path2752" class="cls-4" d="M263.97,145.56c2.09-12.08-5.5-23.12-13.65-27.44-4.74-2.59-4.93-1.9-4.93,1.73.38,11.22,11.95,20.53,15.36,25.71,3.22,4.83,3.03,1.21,3.22,0Z"/>
  <path id="path2754" class="cls-4" d="M261.88,176.97c-6.83-22.78,7.4-35.89,11.76-38.48,4.17-2.76,6.83-3.8,4.93.52-2.84,6.38.19,24.16-10.62,35.37-3.41,3.8-4.74,7.76-6.07,2.59Z"/>
  <path id="path2756" class="cls-4" d="M263.4,171.96c5.69-19.84-6.64-31.06-10.43-33.3-3.6-2.24-5.88-3.11-4.17.52,2.28,5.52-.19,21.05,9.29,30.71,3.03,3.28,4.17,6.56,5.31,2.07Z"/>
  <path id="path2758" class="cls-4" d="M256.38,162.65c-10.24,10.01-10.43,24.67-5.88,33.3,2.84,5,3.22,4.66,5.88,1.04,7.21-10.53,2.84-25.71,3.22-32.44.19-6.38-2.09-2.93-3.22-1.9Z"/>
  <path id="path2760" class="cls-4" d="M273.26,178.52c0,13.8-9.29,25.02-19.15,28.47-5.69,1.9-5.69,1.38-4.93-2.76,2.65-15.53,15.74-21.22,20.48-26.23,4.55-4.83,3.6-.86,3.6.52Z"/>
  <path id="path2762" class="cls-4" d="M237.99,219.59c16.69-13.8,7.77-23.47,8.53-32.44.38-4.83-1.71-3.62-3.6-1.9-10.62,9.49-11.19,26.4-8.91,32.96.95,2.93,2.47,2.59,3.98,1.38Z"/>
  <path id="path2764" class="cls-4" d="M260.37,210.62c-5.5,15.18-20.1,24.5-32.43,25.02-7.21.35-7.02-.17-4.55-4.66,9.29-16.22,25.79-18.12,33.19-22.26,6.83-3.8,4.36.35,3.79,1.9Z"/>
  <path id="path2766" class="cls-4" d="M215.04,239.09c21.62-9.84,17.26-26.23,21.24-30.37,2.84-2.93-.57-2.59-2.28-1.55-12.71,6.73-22.95,17.43-23.14,28.82,0,4.31.38,4.83,4.17,3.11Z"/>
  <path id="path2768" class="cls-4" d="M185.46,257.38c27.31,3.97,40.01-14.84,47.98-16.56,4.17-.86,1.14-2.42-.95-2.59-18.2-1.9-41.34,5.87-48.36,14.49-2.84,3.45-2.84,4.14,1.33,4.66Z"/>
  <path id="path2770" class="cls-4" d="M213.15,227.87c-5.5,16.39-25.98,29.85-41.34,30.89-7.21.52-7.21-.17-4.55-4.49,12.33-20.36,33.75-23.81,41.34-28.99,6.45-4.49,5.12,1.04,4.55,2.59Z"/>
  <path id="path2780" class="cls-4" d="M111.5,55.66c5.31-16.91,17.64-14.15,21.24-16.22,3.6-2.07,3.98-1.55,3.22,2.24-1.52,6.73-14.22,14.15-20.48,16.39-2.28.69-5.12,1.73-3.98-2.42Z"/>
  <path id="path2782" class="cls-4" d="M113.97,58.6c14.79-10.87,26.36-2.76,30.91-3.97,3.41-.86,1.9,1.21.57,2.07-9.48,6.04-21.24,9.32-30.34,5.52-3.6-1.38-3.79-1.73-1.14-3.62Z"/>
  <path id="path2784" class="cls-4" d="M81.92,69.64c-.19-10.7,24.08-15.18,29.2-21.74,3.03-3.97,5.69-1.9,4.17,4.49-2.28,8.28-18.96,17.43-28.07,19.15-5.5,1.04-5.31-.69-5.31-1.9Z"/>
  <path id="path2786" class="cls-4" d="M82.68,71.54c15.36-12.6,28.26-8.45,33-9.66,4.74-1.04,6.64,1.55-.76,6.73-9.1,6.21-23.14,7.42-29.01,6.21-5.88-1.21-4.36-2.42-3.22-3.28Z"/>
  <path id="path2788" class="cls-4" d="M55.18,90c4.36-18.29,18.2-22.09,21.62-25.54,3.22-3.45,6.64-2.42,3.79,5.87-3.41,9.84-14.6,18.46-20.48,20.53-5.69,2.24-5.31.52-4.93-.86Z"/>
  <path id="path2790" class="cls-4" d="M55.37,92.42c11.19-16.39,25.79-15.87,30.34-18.12,4.36-2.42,7.4-.35,1.52,6.73-6.83,8.63-20.86,13.46-27.31,13.8s-5.31-1.21-4.55-2.42Z"/>
  <path id="path2792" class="cls-4" d="M40.96,111.92c-6.45-18.64,8.34-25.54,9.86-28.64,1.71-3.11,3.41-3.11,4.36.17,4.17,13.29-9.29,26.23-11.38,28.82-2.09,2.42-2.47,1.21-2.84-.35Z"/>
  <path id="path2794" class="cls-4" d="M43.99,117.09c5.12-20.88,18.58-19.67,21.62-22.6,3.22-2.93,3.6-.86,3.03,2.93-1.52,10.18-14.98,17.08-21.05,20.53-1.9,1.04-4.17,2.24-3.6-.86Z"/>
  <path id="path2796" class="cls-4" d="M31.1,141.59c-9.29-19.67,1.71-32.96,5.12-35.89,3.41-2.76,5.5-3.97,4.36,0-1.52,6.04,3.79,21.57-4.36,32.96-2.65,3.8-3.03,7.42-5.12,2.93Z"/>
  <path id="path2798" class="cls-4" d="M36.03,145.56c-2.09-12.08,5.5-23.12,13.65-27.44,4.74-2.59,4.93-1.9,4.93,1.73-.38,11.22-11.95,20.53-15.36,25.71-3.22,4.83-3.03,1.21-3.22,0Z"/>
  <path id="path2800" class="cls-4" d="M38.12,176.97c6.83-22.78-7.4-35.89-11.76-38.48-4.17-2.76-6.83-3.8-4.93.52,2.84,6.38-.19,24.16,10.62,35.37,3.41,3.8,4.55,7.76,6.07,2.59Z"/>
  <path id="path2802" class="cls-4" d="M36.6,171.96c-5.69-19.84,6.64-31.06,10.43-33.3,3.6-2.24,5.88-3.11,4.17.52-2.28,5.52.19,21.05-9.29,30.71-3.03,3.28-4.17,6.56-5.31,2.07Z"/>
  <path id="path2804" class="cls-4" d="M43.62,162.65c10.24,10.01,10.43,24.67,5.88,33.3-2.84,5-3.22,4.66-5.88,1.04-7.21-10.53-2.84-25.71-3.22-32.44-.19-6.38,2.09-2.93,3.22-1.9Z"/>
  <path id="path2806" class="cls-4" d="M26.74,178.52c0,13.8,9.29,25.02,19.15,28.47,5.69,1.9,5.69,1.38,4.93-2.76-2.65-15.53-15.74-21.22-20.48-26.23-4.55-4.83-3.6-.86-3.6.52Z"/>
  <path id="path2808" class="cls-4" d="M62.01,219.59c-16.69-13.8-7.77-23.47-8.53-32.44-.38-4.83,1.71-3.62,3.6-1.9,10.62,9.49,11.19,26.4,8.91,32.96-.95,2.93-2.47,2.59-3.98,1.38Z"/>
  <path id="path2810" class="cls-4" d="M39.63,210.62c5.5,15.18,20.1,24.5,32.43,25.02,7.21.35,7.02-.17,4.55-4.66-9.29-16.22-25.79-18.12-33.19-22.26-6.83-3.8-4.36.35-3.79,1.9Z"/>
  <path id="path2812" class="cls-4" d="M84.96,239.09c-21.62-9.84-17.26-26.23-21.24-30.37-2.84-2.93.57-2.59,2.28-1.55,12.71,6.73,22.95,17.43,23.14,28.82,0,4.31-.38,4.83-4.17,3.11Z"/>
  <path id="path2814" class="cls-4" d="M114.54,257.38c-27.31,3.97-40.01-14.84-47.98-16.56-4.17-.86-1.14-2.42.95-2.59,18.2-1.9,41.34,5.87,48.36,14.49,2.84,3.45,2.84,4.14-1.33,4.66Z"/>
  <path id="path2816" class="cls-4" d="M86.85,227.87c5.5,16.39,25.98,29.85,41.34,30.89,7.21.52,7.21-.17,4.55-4.49-12.33-20.36-33.75-23.81-41.34-28.99-6.45-4.49-5.12,1.04-4.55,2.59Z"/>
  <path id="path2820" class="cls-2" d="M182.05,60.15c-3.6-2.42-16.88-1.04-19.34-2.59,4.74,3.62,15.36,1.04,19.34,2.59Z"/>
  <path id="path2822" class="cls-2" d="M214.1,66.36c-2.84-4.66-19.72-7.76-22.19-11.91,4.36,7.94,17.45,6.9,22.19,11.91Z"/>
  <path id="path2824" class="cls-2" d="M211.63,71.71c-6.26-5.52-20.86-3.28-25.22-6.56,10.24,8.45,15.93,1.9,25.22,6.56Z"/>
  <path id="path2826" class="cls-2" d="M175.03,47.21c3.98,1.9,8.91,3.8,11.38,8.28-2.84-3.45-7.96-4.83-12.14-7.76.19,0,.57-.35.76-.52Z"/>
  <path id="path2828" class="cls-2" d="M237.23,82.75c-2.47-5.18-11.19-10.87-11.95-12.77,2.47,6.73,9.67,8.28,11.95,12.77Z"/>
  <path id="path2830" class="cls-2" d="M239.51,91.9c-7.59-10.87-19.53-9.66-24.27-13.8,3.6,3.97,17.26,6.56,24.27,13.8Z"/>
  <path id="path2832" class="cls-2" d="M257.14,108.64c.57-11.56-8.91-15.87-9.29-22.43-.19,7.76,9.67,18.29,9.29,22.43Z"/>
  <path id="path2834" class="cls-2" d="M252.4,114.85c-1.9-10.01-14.79-10.7-17.07-16.56,0,5.52,15.17,11.22,17.07,16.56Z"/>
  <path id="path2836" class="cls-2" d="M263.02,109.16c6.83,7.59,2.09,19.15,4.93,27.61-3.41-6.21-1.71-21.74-4.93-27.61Z"/>
  <path id="path2838" class="cls-2" d="M251.83,141.59c10.24,10.01,6.07,21.22,10.24,26.06-5.12-6.73-4.36-19.84-10.24-26.06Z"/>
  <path id="path2840" class="cls-2" d="M273.07,142.98c-8.72,8.8-3.41,22.09-7.96,28.3,5.12-5.35,4.36-21.74,7.96-28.3Z"/>
  <path id="path2842" class="cls-2" d="M262.07,142.98c-1.14-10.18-11.57-15.53-12.52-21.05-1.14,5.52,10.05,14.15,12.52,21.05Z"/>
  <path id="path2844" class="cls-2" d="M256.76,167.3c1.71,7.07-4.55,22.26-2.65,26.92-4.17-8.11,3.6-23.47,2.65-26.92Z"/>
  <path id="path2846" class="cls-2" d="M270.23,183.52c-4.17,12.6-12.52,11.73-15.17,19.33,1.9-7.25,12.9-13.8,15.17-19.33Z"/>
  <path id="path2848" class="cls-2" d="M243.11,189.39c-5.5,8.45-.95,18.12-5.5,24.16,6.45-6.04,3.03-17.26,5.5-24.16Z"/>
  <path id="path2850" class="cls-2" d="M256.38,212.51c-6.64,11.22-20.29,10.18-25.79,18.29,5.5-10.18,22.38-11.91,25.79-18.29Z"/>
  <path id="path2852" class="cls-2" d="M232.3,211.13c-11.76,7.42-8.15,15.18-17.07,23.47,11.19-8.28,10.24-17.43,17.07-23.47Z"/>
  <path id="path2854" class="cls-2" d="M226.8,241.16c-11.38-.35-27.69,13.11-37.55,12.08,9.86,1.9,28.07-10.18,37.55-12.08Z"/>
  <path id="path2856" class="cls-2" d="M208.41,229.08c-.76,10.53-30.34,17.26-33.57,24.33,3.6-9.32,29.58-16.22,33.57-24.33Z"/>
  <path id="path2862" class="cls-2" d="M117.95,60.15c3.6-2.42,16.88-1.04,19.34-2.59-4.74,3.62-15.36,1.04-19.34,2.59Z"/>
  <path id="path2864" class="cls-2" d="M85.9,66.36c2.84-4.66,19.72-7.76,22.19-11.91-4.36,7.94-17.45,6.9-22.19,11.91Z"/>
  <path id="path2866" class="cls-2" d="M88.37,71.71c6.26-5.52,20.86-3.28,25.22-6.56-10.24,8.45-15.93,1.9-25.22,6.56Z"/>
  <path id="path2868" class="cls-2" d="M113.59,55.49c3.6-6.9,13.84-7.76,16.5-11.91-3.98,6.21-12.71,7.25-16.5,11.91Z"/>
  <path id="path2872" class="cls-2" d="M62.77,82.75c2.47-5.18,11.19-10.87,11.95-12.77-2.47,6.73-9.67,8.28-11.95,12.77Z"/>
  <path id="path2874" class="cls-2" d="M60.49,91.9c7.59-10.87,19.53-9.66,24.27-13.8-3.6,3.97-17.26,6.56-24.27,13.8Z"/>
  <path id="path2876" class="cls-2" d="M42.86,108.64c-.57-11.56,8.91-15.87,9.29-22.43.19,7.76-9.67,18.29-9.29,22.43Z"/>
  <path id="path2878" class="cls-2" d="M47.6,114.85c1.9-10.01,14.79-10.7,17.07-16.56,0,5.52-15.17,11.22-17.07,16.56Z"/>
  <path id="path2880" class="cls-2" d="M36.98,109.16c-6.83,7.59-2.09,19.15-4.93,27.61,3.41-6.21,1.71-21.74,4.93-27.61Z"/>
  <path id="path2882" class="cls-2" d="M48.17,141.59c-10.24,10.01-6.07,21.22-10.24,26.06,5.12-6.73,4.36-19.84,10.24-26.06Z"/>
  <path id="path2884" class="cls-2" d="M26.93,142.98c8.72,8.8,3.41,22.09,7.96,28.3-5.12-5.35-4.36-21.74-7.96-28.3Z"/>
  <path id="path2886" class="cls-2" d="M37.93,142.98c1.14-10.18,11.57-15.53,12.52-21.05,1.14,5.52-10.05,14.15-12.52,21.05Z"/>
  <path id="path2888" class="cls-2" d="M43.24,167.3c-1.71,7.07,4.55,22.26,2.65,26.92,4.17-8.11-3.6-23.47-2.65-26.92Z"/>
  <path id="path2890" class="cls-2" d="M29.77,183.52c4.17,12.6,12.52,11.73,15.17,19.33-1.9-7.25-12.9-13.8-15.17-19.33Z"/>
  <path id="path2892" class="cls-2" d="M56.89,189.39c5.5,8.45.95,18.12,5.5,24.16-6.45-6.04-3.03-17.26-5.5-24.16Z"/>
  <path id="path2894" class="cls-2" d="M43.62,212.51c6.64,11.22,20.29,10.18,25.79,18.29-5.5-10.18-22.38-11.91-25.79-18.29Z"/>
  <path id="path2896" class="cls-2" d="M67.7,211.13c11.76,7.42,8.15,15.18,17.07,23.47-11.19-8.28-10.24-17.43-17.07-23.47Z"/>
  <path id="path2898" class="cls-2" d="M73.2,241.16c11.38-.35,27.69,13.11,37.55,12.08-9.86,1.9-28.07-10.18-37.55-12.08Z"/>
  <path id="path2900" class="cls-2" d="M91.59,229.08c.76,10.53,30.34,17.26,33.57,24.33-3.6-9.32-29.58-16.22-33.57-24.33Z"/>
  <path id="path12826" class="cls-3" d="M238.79,150.05c0,44.81-39.92,81.14-89.17,81.14s-89.17-36.33-89.17-81.14,39.92-81.14,89.17-81.14,89.17,36.33,89.17,81.14Z"/>
  <g id="g12874">
    <path id="path12861" class="cls-2" d="M132.13,231.24l-.32.99c-.21.66-.92,1.01-1.7.98-1.82-.49-4.24-.95-6.42-1.54l2.03-6.29c2.37.63,4.78,1.1,6.48,1.37.73.19,1.11.84.9,1.5l-.27.83M117.49,225.17l.32-.99c.21-.66.92-1.01,1.65-.82,1.77.65,3.9,1.4,6.26,2.03l-2.03,6.29c-2.18-.58-4.37-1.17-6.32-1.87-.67-.36-.85-1.66-.63-2.33"/>
    <path id="path12865" class="cls-2" d="M130.89,230.69l-.23.71c-.15.48-.72.71-1.36.66-1.51-.4-3.52-.81-5.33-1.3l1.45-4.5c1.97.53,3.97.94,5.37,1.18.61.16.95.63.79,1.11l-.19.6M118.63,225.87l.23-.71c.15-.48.72-.71,1.33-.54,1.48.52,3.25,1.12,5.22,1.65l-1.45,4.5c-1.82-.49-3.63-.97-5.26-1.53-.57-.28-.76-1.23-.6-1.71"/>
  </g>
  <g id="g12878">
    <path id="path12880" class="cls-2" d="M107.74,223.37l-.61.87c-.41.58-1.2.74-1.94.51-1.6-.93-3.77-2-5.69-3.12l3.89-5.51c2.07,1.21,4.25,2.28,5.79,2.97.64.37.81,1.09.4,1.67l-.51.73M95.57,213.8l.61-.87c.41-.58,1.2-.74,1.83-.36,1.49,1.08,3.31,2.34,5.38,3.55l-3.89,5.51c-1.91-1.12-3.83-2.24-5.48-3.41-.54-.52-.3-1.81.11-2.39"/>
    <path id="path12882" class="cls-2" d="M106.71,222.53l-.44.62c-.3.42-.91.49-1.51.28-1.33-.78-3.12-1.68-4.72-2.61l2.79-3.95c1.72,1.01,3.52,1.92,4.79,2.51.53.31.71.85.42,1.27l-.37.52M96.45,214.76l.44-.62c.3-.42.91-.49,1.44-.18,1.26.88,2.78,1.91,4.5,2.92l-2.79,3.95c-1.59-.93-3.18-1.86-4.57-2.82-.46-.41-.34-1.37-.05-1.79"/>
  </g>
  <g id="g12884">
    <path id="path12886" class="cls-2" d="M86.77,209.57l-.86.68c-.57.45-1.38.4-2.02,0-1.24-1.3-3-2.89-4.49-4.45l5.44-4.29c1.61,1.69,3.37,3.28,4.63,4.34.5.52.44,1.25-.13,1.7l-.72.56M78.06,197.26l.86-.68c.57-.45,1.38-.4,1.87.12,1.1,1.42,2.45,3.09,4.06,4.79l-5.44,4.29c-1.49-1.56-2.98-3.13-4.2-4.68-.35-.63.28-1.82.85-2.27"/>
    <path id="path12888" class="cls-2" d="M86.05,208.5l-.62.49c-.42.33-1.03.24-1.54-.12-1.03-1.08-2.48-2.42-3.72-3.72l3.9-3.07c1.34,1.41,2.79,2.74,3.82,3.64.41.43.42,1,0,1.32l-.52.41M78.6,198.42l.62-.49c.42-.33,1.03-.24,1.44.19.93,1.16,2.07,2.54,3.42,3.95l-3.9,3.07c-1.24-1.3-2.48-2.6-3.52-3.87-.31-.51.09-1.4.51-1.73"/>
  </g>
  <g id="g12890">
    <path id="path12892" class="cls-2" d="M70.92,190.96l-1.03.43c-.69.29-1.44.03-1.93-.53-.79-1.57-1.99-3.54-2.93-5.42l6.55-2.72c1.02,2.04,2.22,4.01,3.1,5.35.32.63.03,1.31-.65,1.6l-.86.36M66.37,176.92l1.03-.43c.69-.29,1.44-.03,1.76.6.62,1.64,1.39,3.6,2.41,5.64l-6.55,2.72c-.95-1.88-1.89-3.77-2.59-5.56-.14-.7.83-1.67,1.52-1.96"/>
    <path id="path12894" class="cls-2" d="M70.56,189.75l-.74.31c-.5.21-1.06-.03-1.44-.51-.66-1.31-1.63-2.95-2.42-4.52l4.69-1.95c.85,1.7,1.83,3.34,2.54,4.47.26.52.1,1.06-.4,1.27l-.62.26M66.54,178.17l.74-.31c.5-.21,1.06.03,1.32.56.53,1.36,1.2,2.97,2.05,4.67l-4.69,1.95c-.79-1.57-1.57-3.13-2.17-4.62-.14-.57.52-1.32,1.02-1.53"/>
  </g>
  <g id="g12896">
    <path id="path12898" class="cls-2" d="M61.48,169.04l-1.13.15c-.75.1-1.39-.34-1.69-1-.27-1.71-.81-3.9-1.13-5.95l7.13-.93c.35,2.22.89,4.42,1.32,5.93.11.68-.37,1.27-1.12,1.37l-.94.12M61.46,154.4l1.13-.15c.75-.1,1.39.34,1.5,1.02.08,1.73.22,3.81.57,6.03l-7.13.93c-.32-2.05-.65-4.1-.76-6,.08-.71,1.31-1.39,2.06-1.49"/>
    <path id="path12900" class="cls-2" d="M61.51,167.78l-.81.11c-.54.07-1.01-.3-1.23-.85-.22-1.42-.65-3.25-.92-4.95l5.1-.67c.29,1.85.72,3.68,1.05,4.94.09.57-.24,1.05-.78,1.12l-.68.09M61.23,155.64l.81-.11c.54-.07,1.01.3,1.1.87.09,1.44.23,3.16.52,5.01l-5.1.67c-.27-1.7-.54-3.41-.66-4.99.04-.59.91-1.13,1.46-1.21"/>
  </g>
  <g id="g12902">
    <path id="path12904" class="cls-2" d="M59.21,145.58l-1.13-.15c-.75-.1-1.23-.68-1.31-1.39.27-1.71.43-3.95.75-6l7.13.93c-.35,2.22-.51,4.47-.57,6.03-.11.68-.75,1.12-1.5,1.02l-.94-.12M63.72,131.53l1.13.15c.75.1,1.23.68,1.12,1.37-.46,1.68-.97,3.71-1.32,5.93l-7.13-.93c.32-2.05.65-4.1,1.13-5.95.3-.66,1.69-1,2.44-.9"/>
    <path id="path12906" class="cls-2" d="M59.62,144.38l-.81-.11c-.54-.07-.87-.55-.91-1.13.22-1.42.38-3.28.65-4.99l5.1.67c-.29,1.85-.45,3.71-.52,5.01-.09.57-.55.94-1.09.87l-.68-.09M63.12,132.66l.81.11c.54.07.87.55.78,1.12-.36,1.4-.76,3.09-1.05,4.94l-5.1-.67c.27-1.7.54-3.41.91-4.96.22-.55,1.23-.85,1.77-.78"/>
  </g>
  <g id="g12908">
    <path id="path12910" class="cls-2" d="M64.29,122.51l-1.03-.43c-.69-.29-.97-.97-.83-1.67.79-1.57,1.64-3.68,2.58-5.57l6.55,2.72c-1.02,2.04-1.87,4.15-2.41,5.64-.31.63-1.07.88-1.76.6l-.86-.36M72.97,110.18l1.03.43c.69.29.97.97.66,1.6-.96,1.5-2.08,3.31-3.1,5.35l-6.55-2.72c.94-1.88,1.89-3.77,2.93-5.42.49-.56,1.93-.53,2.62-.24"/>
    <path id="path12912" class="cls-2" d="M65.06,121.46l-.74-.31c-.5-.21-.67-.75-.52-1.32.65-1.31,1.38-3.05,2.17-4.62l4.69,1.95c-.85,1.7-1.58,3.44-2.05,4.67-.26.52-.82.76-1.32.56l-.62-.26M72.04,111.11l.74.31c.5.21.67.75.4,1.27-.78,1.26-1.68,2.77-2.53,4.47l-4.69-1.95c.79-1.57,1.57-3.13,2.41-4.52.38-.47,1.44-.51,1.94-.3"/>
  </g>
  <g id="g12914">
    <path id="path12916" class="cls-2" d="M76.3,101.64l-.86-.68c-.57-.45-.63-1.18-.28-1.82,1.24-1.3,2.71-3.11,4.2-4.68l5.45,4.29c-1.61,1.7-3.08,3.5-4.06,4.79-.5.52-1.3.57-1.87.12l-.72-.56M88.45,92.04l.86.68c.57.45.63,1.18.13,1.7-1.38,1.19-3.02,2.64-4.63,4.34l-5.45-4.29c1.49-1.57,2.98-3.13,4.49-4.45.64-.41,2.02-.01,2.59.44"/>
    <path id="path12918" class="cls-2" d="M77.37,100.84l-.62-.49c-.42-.33-.41-.89-.09-1.4,1.03-1.09,2.27-2.57,3.51-3.88l3.9,3.07c-1.34,1.41-2.58,2.9-3.41,3.96-.41.43-1.02.52-1.44.2l-.52-.41M87.27,92.7l.62.49c.42.33.41.89,0,1.32-1.13,1.01-2.47,2.23-3.81,3.64l-3.9-3.07c1.24-1.3,2.48-2.6,3.71-3.72.51-.36,1.54-.12,1.96.21"/>
  </g>
  <g id="g12920">
    <path id="path12922" class="cls-2" d="M94.29,84.71l-.62-.87c-.41-.58-.24-1.3.3-1.81,1.59-.93,3.57-2.29,5.48-3.41l3.9,5.51c-2.07,1.21-4.04,2.57-5.38,3.56-.64.37-1.42.22-1.83-.36l-.51-.73M108.91,78.61l.62.87c.41.58.24,1.3-.4,1.67-1.7.79-3.71,1.76-5.79,2.98l-3.9-5.51c1.91-1.12,3.83-2.24,5.68-3.12.74-.23,1.94.51,2.35,1.09"/>
    <path id="path12924" class="cls-2" d="M95.56,84.22l-.44-.62c-.3-.42-.11-.96.34-1.37,1.33-.78,2.98-1.89,4.57-2.82l2.79,3.95c-1.72,1.01-3.38,2.12-4.5,2.92-.53.31-1.14.24-1.44-.18l-.37-.52M107.58,78.94l.44.62c.3.42.11.96-.42,1.27-1.4.68-3.06,1.51-4.79,2.51l-2.79-3.95c1.59-.93,3.18-1.86,4.71-2.62.6-.21,1.51.28,1.81.7"/>
  </g>
  <g id="g12926">
    <path id="path12928" class="cls-2" d="M116.79,73.09l-.32-.99c-.21-.66.17-1.3.85-1.66,1.82-.49,4.13-1.29,6.31-1.87l2.03,6.29c-2.36.63-4.68,1.43-6.26,2.04-.73.19-1.43-.16-1.65-.82l-.27-.83M132.71,70.98l.32.99c.21.66-.17,1.3-.9,1.5-1.87.32-4.11.74-6.47,1.37l-2.03-6.29c2.18-.58,4.37-1.17,6.42-1.54.78-.03,1.7.98,1.92,1.64"/>
    <path id="path12930" class="cls-2" d="M118.16,72.94l-.23-.71c-.16-.48.19-.95.75-1.23,1.51-.41,3.44-1.05,5.26-1.53l1.46,4.5c-1.97.53-3.9,1.17-5.22,1.65-.61.16-1.17-.06-1.33-.54l-.19-.6M131.33,70.96l.23.71c.16.48-.19.95-.79,1.11-1.55.29-3.4.66-5.37,1.19l-1.46-4.5c1.82-.49,3.63-.97,5.33-1.3.64-.05,1.36.66,1.52,1.14"/>
  </g>
  <g id="g12932">
    <path id="path12934" class="cls-2" d="M141.97,67.71v-1.03c0-.69.57-1.21,1.33-1.38,1.9,0,4.36-.18,6.64-.18v6.55c-2.46,0-4.93.18-6.63.35-.76,0-1.33-.52-1.33-1.21v-.86M157.9,69.77v1.03c0,.69-.57,1.21-1.33,1.21-1.9-.17-4.17-.34-6.64-.34v-6.55c2.27,0,4.55,0,6.63.17.76.17,1.33,1.38,1.33,2.07"/>
    <path id="path12936" class="cls-2" d="M143.34,67.92v-.74c0-.5.47-.86,1.1-.98,1.58,0,3.63-.12,5.52-.12v4.69c-2.05,0-4.1.12-5.52.24-.63,0-1.1-.36-1.1-.86v-.62M156.59,69.39v.74c0,.5-.47.86-1.1.86-1.58-.12-3.47-.24-5.52-.24v-4.69c1.89,0,3.78,0,5.52.12.63.12,1.1.98,1.11,1.48"/>
  </g>
  <g id="g12938">
    <path id="path12940" class="cls-2" d="M166.1,68.87l.31-1c.21-.66.91-1.02,1.69-1,1.82.47,4.25.92,6.44,1.48l-1.97,6.3c-2.37-.61-4.79-1.06-6.49-1.32-.73-.19-1.12-.83-.91-1.49l.26-.83M180.81,74.82l-.31,1c-.21.66-.91,1.02-1.64.83-1.77-.64-3.91-1.37-6.28-1.98l1.97-6.3c2.19.57,4.38,1.13,6.33,1.82.68.35.86,1.66.66,2.32"/>
    <path id="path12942" class="cls-2" d="M167.35,69.41l.22-.71c.15-.48.71-.71,1.36-.67,1.52.39,3.53.79,5.35,1.26l-1.41,4.51c-1.97-.51-3.98-.9-5.38-1.14-.61-.16-.95-.62-.8-1.1l.19-.6M179.65,74.13l-.22.71c-.15.48-.71.71-1.32.55-1.48-.51-3.27-1.1-5.24-1.61l1.41-4.51c1.82.47,3.64.94,5.27,1.49.57.27.77,1.22.62,1.7"/>
  </g>
  <g id="g12944">
    <path id="path12946" class="cls-2" d="M190.57,76.54l.61-.88c.4-.58,1.19-.75,1.93-.52,1.6.92,3.79,1.97,5.72,3.07l-3.84,5.54c-2.09-1.2-4.27-2.25-5.82-2.93-.64-.37-.82-1.08-.42-1.67l.51-.73M202.83,86.02l-.61.88c-.4.58-1.19.75-1.83.38-1.5-1.07-3.33-2.32-5.41-3.51l3.84-5.54c1.93,1.1,3.85,2.21,5.51,3.37.54.51.31,1.81-.09,2.39"/>
    <path id="path12948" class="cls-2" d="M191.6,77.38l.43-.63c.29-.42.91-.5,1.51-.3,1.33.77,3.14,1.66,4.74,2.58l-2.75,3.97c-1.73-.99-3.54-1.89-4.81-2.47-.53-.31-.72-.84-.43-1.27l.36-.53M201.94,85.06l-.43.63c-.29.42-.91.5-1.44.19-1.26-.87-2.79-1.89-4.53-2.88l2.75-3.97c1.6.92,3.2,1.84,4.6,2.78.46.41.36,1.37.06,1.79"/>
  </g>
  <g id="g12950">
    <path id="path12952" class="cls-2" d="M211.66,90.17l.85-.68c.57-.46,1.37-.41,2.02,0,1.25,1.29,3.03,2.86,4.53,4.41l-5.4,4.34c-1.63-1.68-3.4-3.25-4.68-4.3-.5-.52-.45-1.25.12-1.7l.71-.57M220.5,102.41l-.85.68c-.57.46-1.37.41-1.87-.11-1.11-1.41-2.48-3.08-4.11-4.76l5.4-4.34c1.51,1.55,3.01,3.11,4.25,4.64.36.63-.26,1.82-.83,2.27"/>
    <path id="path12954" class="cls-2" d="M212.39,91.24l.61-.49c.41-.33,1.02-.25,1.54.1,1.04,1.08,2.5,2.4,3.75,3.69l-3.87,3.1c-1.36-1.4-2.81-2.72-3.85-3.61-.42-.43-.43-.99-.02-1.32l.51-.41M219.94,101.26l-.61.49c-.41.33-1.02.25-1.44-.18-.94-1.16-2.1-2.53-3.45-3.93l3.87-3.1c1.25,1.29,2.5,2.58,3.55,3.85.32.51-.08,1.4-.49,1.73"/>
  </g>
  <g id="g12956">
    <path id="path12958" class="cls-2" d="M227.69,108.66l1.03-.44c.69-.29,1.44-.04,1.94.51.8,1.56,2.02,3.52,2.98,5.4l-6.53,2.78c-1.04-2.03-2.26-3.99-3.15-5.32-.32-.63-.05-1.31.64-1.61l.86-.37M232.37,122.66l-1.03.44c-.69.29-1.44.04-1.76-.58-.63-1.64-1.42-3.59-2.47-5.62l6.53-2.78c.96,1.88,1.93,3.75,2.64,5.54.15.7-.81,1.68-1.5,1.97"/>
    <path id="path12960" class="cls-2" d="M228.06,109.87l.74-.31c.5-.21,1.06.02,1.45.49.67,1.3,1.66,2.94,2.46,4.5l-4.67,1.99c-.87-1.69-1.86-3.33-2.58-4.45-.27-.52-.11-1.06.39-1.28l.62-.26M232.19,121.42l-.74.31c-.5.21-1.06-.02-1.33-.54-.55-1.35-1.23-2.96-2.1-4.65l4.67-1.99c.8,1.56,1.6,3.12,2.22,4.6.15.57-.51,1.33-1.01,1.54"/>
  </g>
  <g id="g12962">
    <path id="path12964" class="cls-2" d="M237.34,130.5l1.12-.16c.75-.1,1.4.33,1.7.99.29,1.71.85,3.9,1.19,5.94l-7.12.99c-.37-2.22-.93-4.41-1.38-5.92-.11-.68.36-1.27,1.11-1.38l.94-.13M237.5,145.14l-1.12.16c-.75.1-1.4-.33-1.51-1.01-.1-1.73-.26-3.8-.63-6.02l7.12-.99c.34,2.05.69,4.09.82,6-.07.71-1.3,1.4-2.05,1.51"/>
    <path id="path12966" class="cls-2" d="M237.32,131.76l.81-.11c.54-.08,1.01.3,1.23.84.24,1.42.68,3.24.97,4.95l-5.1.71c-.31-1.84-.75-3.67-1.1-4.93-.1-.57.23-1.05.77-1.12l.67-.09M237.71,143.9l-.81.11c-.54.08-1.01-.3-1.1-.86-.11-1.44-.26-3.16-.57-5l5.1-.71c.29,1.7.57,3.4.7,4.98-.04.59-.9,1.14-1.44,1.22"/>
  </g>
  <g id="g12968">
    <path id="path12970" class="cls-2" d="M239.83,153.94l1.13.14c.75.09,1.24.67,1.33,1.38-.25,1.71-.39,3.96-.7,6.01l-7.14-.87c.33-2.22.47-4.47.51-6.03.1-.68.74-1.13,1.49-1.04l.94.12M235.46,168.03l-1.13-.14c-.75-.09-1.24-.67-1.14-1.36.44-1.69.93-3.72,1.26-5.94l7.14.87c-.3,2.05-.61,4.1-1.07,5.96-.29.66-1.68,1.01-2.43.92"/>
    <path id="path12972" class="cls-2" d="M239.43,155.14l.81.1c.54.07.88.54.92,1.13-.21,1.42-.35,3.29-.6,4.99l-5.11-.63c.27-1.85.42-3.71.47-5.01.08-.57.54-.95,1.09-.88l.68.08M236.04,166.89l-.81-.1c-.54-.07-.88-.54-.79-1.11.34-1.41.73-3.1,1-4.95l5.11.63c-.25,1.71-.5,3.41-.87,4.96-.22.55-1.22.86-1.76.8"/>
  </g>
  <g id="g12974">
    <path id="path12976" class="cls-2" d="M234.99,177.06l1.04.42c.69.28.98.96.84,1.67-.77,1.58-1.6,3.7-2.53,5.59l-6.58-2.67c1-2.05,1.83-4.17,2.36-5.66.31-.63,1.06-.89,1.75-.61l.87.35M226.42,189.46l-1.04-.42c-.69-.28-.98-.96-.67-1.59.95-1.51,2.04-3.33,3.05-5.38l6.58,2.67c-.93,1.89-1.85,3.78-2.88,5.45-.48.56-1.93.54-2.62.26"/>
    <path id="path12978" class="cls-2" d="M234.22,178.11l.74.3c.5.2.67.74.54,1.32-.64,1.31-1.36,3.06-2.13,4.64l-4.71-1.91c.83-1.7,1.55-3.46,2.01-4.69.26-.52.81-.77,1.32-.57l.62.25M227.34,188.52l-.74-.3c-.5-.2-.67-.74-.42-1.27.76-1.26,1.66-2.79,2.49-4.49l4.71,1.91c-.77,1.57-1.54,3.15-2.37,4.54-.38.48-1.44.52-1.94.31"/>
  </g>
  <g id="g12980">
    <path id="path12982" class="cls-2" d="M223.16,198.01l.87.67c.58.45.64,1.18.29,1.81-1.23,1.31-2.68,3.13-4.16,4.71l-5.49-4.25c1.6-1.71,3.05-3.53,4.01-4.82.49-.53,1.29-.58,1.87-.14l.72.56M211.11,207.71l-.87-.67c-.58-.45-.64-1.18-.15-1.7,1.37-1.2,2.99-2.67,4.59-4.38l5.49,4.25c-1.47,1.58-2.95,3.15-4.44,4.49-.64.41-2.02.03-2.59-.42"/>
    <path id="path12984" class="cls-2" d="M222.1,198.82l.62.48c.42.32.42.89.11,1.4-1.02,1.09-2.25,2.59-3.48,3.9l-3.93-3.04c1.33-1.42,2.56-2.92,3.37-3.98.41-.44,1.02-.53,1.44-.21l.52.4M212.28,207.04l-.62-.48c-.42-.32-.42-.89,0-1.32,1.12-1.01,2.45-2.25,3.78-3.67l3.93,3.04c-1.23,1.31-2.45,2.62-3.68,3.75-.51.36-1.54.13-1.96-.2"/>
  </g>
  <g id="g12986">
    <path id="path12988" class="cls-2" d="M205.34,215.07l.62.87c.42.58.25,1.29-.28,1.82-1.59.95-3.54,2.32-5.45,3.46l-3.95-5.48c2.06-1.23,4.02-2.6,5.34-3.6.63-.38,1.42-.23,1.84.35l.52.72M190.77,221.29l-.62-.87c-.42-.58-.25-1.29.38-1.67,1.69-.8,3.7-1.79,5.76-3.02l3.95,5.48c-1.9,1.14-3.81,2.27-5.65,3.17-.74.23-1.94-.49-2.36-1.07"/>
    <path id="path12990" class="cls-2" d="M204.07,215.58l.45.62c.3.42.12.96-.33,1.37-1.32.79-2.96,1.91-4.54,2.86l-2.83-3.92c1.71-1.02,3.36-2.15,4.47-2.96.53-.31,1.14-.25,1.44.17l.37.52M192.1,220.95l-.45-.62c-.3-.42-.12-.96.4-1.27,1.39-.69,3.05-1.53,4.76-2.55l2.83,3.92c-1.58.94-3.17,1.89-4.69,2.65-.6.21-1.52-.27-1.82-.69"/>
  </g>
  <g id="g12992">
    <path id="path12994" class="cls-2" d="M182.95,226.88l.33.99c.22.66-.16,1.31-.83,1.67-1.81.5-4.12,1.32-6.3,1.92l-2.09-6.27c2.36-.65,4.66-1.47,6.24-2.09.73-.2,1.44.14,1.66.8l.28.83M167.05,229.11l-.33-.99c-.22-.66.16-1.31.88-1.51,1.87-.34,4.1-.77,6.46-1.43l2.09,6.27c-2.18.6-4.35,1.2-6.41,1.59-.78.04-1.71-.97-1.93-1.63"/>
    <path id="path12996" class="cls-2" d="M181.58,227.04l.24.71c.16.48-.18.95-.74,1.23-1.51.42-3.43,1.07-5.24,1.58l-1.5-4.49c1.96-.54,3.89-1.2,5.2-1.69.6-.17,1.17.05,1.33.53l.2.59M168.43,229.13l-.24-.71c-.16-.48.18-.95.78-1.12,1.55-.3,3.4-.69,5.36-1.23l1.5,4.49c-1.81.5-3.62,1-5.32,1.34-.64.05-1.37-.65-1.53-1.13"/>
  </g>
  <g id="g12998">
    <path id="path13000" class="cls-2" d="M157.82,232.48v1.03c.02.69-.55,1.21-1.3,1.39-1.9.02-4.36.21-6.64.23l-.07-6.55c2.47-.02,4.93-.21,6.63-.4.76,0,1.33.51,1.34,1.2v.86M141.87,230.55v-1.03c-.02-.69.55-1.21,1.3-1.22,1.9.16,4.18.31,6.64.29l.07,6.55c-2.28.02-4.55.04-6.64-.12-.76-.17-1.34-1.37-1.35-2.06"/>
    <path id="path13002" class="cls-2" d="M156.45,232.29v.74c.01.5-.46.87-1.09.99-1.58.01-3.63.15-5.52.17l-.05-4.69c2.05-.02,4.1-.16,5.52-.29.63,0,1.11.35,1.11.85v.62M143.19,230.92v-.74c-.01-.5.46-.87,1.09-.87,1.58.11,3.47.21,5.52.19l.05,4.69c-1.89.02-3.79.03-5.52-.07-.63-.12-1.11-.97-1.12-1.47"/>
  </g>
</svg>