<?xml version="1.0" encoding="UTF-8"?> <!-- Generator: Adobe Illustrator 26.4.1, SVG Export Plug-In . SVG Version: 6.00 Build 0) --> <svg xmlns="http://www.w3.org/2000/svg" xmlns:xlink="http://www.w3.org/1999/xlink" id="Layer_1" x="0px" y="0px" viewBox="0 0 570 140" style="enable-background:new 0 0 570 140;" xml:space="preserve"> <style type="text/css"> .st0{fill:#1B2032;} .st1{fill:url(#SVGID_1_);} </style> <g> <g> <g> <path class="st0" d="M229.97,96.34H243c-1.48,7.86-5.01,14.23-10.48,18.73c-5.47,4.5-12.51,6.78-20.91,6.78 c-6.82,0-12.91-1.55-18.09-4.6c-5.19-3.06-9.27-7.4-12.14-12.91c-2.85-5.48-4.3-11.71-4.3-18.78c0-7.07,1.45-13.3,4.3-18.78 c2.87-5.5,6.95-9.85,12.14-12.9c5.18-3.05,11.26-4.6,18.09-4.6c8.4,0,15.44,2.28,20.91,6.78c5.47,4.5,9,10.87,10.48,18.73h-13.03 c-0.94-4.34-3.04-7.48-6.26-9.94c-3.23-2.46-7.3-3.72-12.1-3.72c-6.25,0-11.39,2.28-15.27,6.76c-3.93,4.52-5.91,10.38-5.91,17.67 c0,7.29,1.99,13.14,5.91,17.67c3.88,4.48,9.02,6.76,15.27,6.76c4.8,0,8.87-1.25,12.1-3.72 C226.93,103.82,229.03,100.68,229.97,96.34z"></path> </g> <g> <path class="st0" d="M282.45,121.85c-9.19,0-16.7-2.16-22.3-6.42c-5.68-4.32-8.61-10.41-8.71-18.08l-0.01-1.01h13.04l0.04,0.95 c0.17,3.87,1.83,6.94,5.08,9.39c3.28,2.47,7.6,3.72,12.85,3.72c4.65,0,8.45-0.92,11.29-2.75c2.74-1.76,4.07-3.98,4.07-6.8 c0-2.42-0.63-4.27-1.87-5.52c-1.3-1.3-3.03-2.21-5.14-2.71c-2.25-0.53-5.52-1.07-9.7-1.6c-5.97-0.72-10.94-1.69-14.77-2.88 c-3.94-1.22-7.18-3.2-9.63-5.89c-2.5-2.75-3.77-6.54-3.77-11.28c0-4.25,1.22-8.09,3.64-11.4c2.39-3.28,5.69-5.87,9.8-7.69 c4.07-1.81,8.71-2.72,13.79-2.72c8.29,0,15.15,1.98,20.4,5.87c5.31,3.95,8.29,9.65,8.85,16.94l0.08,2.83h-13.04l-0.11-2.63 c-0.42-3.36-2.02-6.06-4.89-8.26c-2.87-2.2-6.54-3.31-10.89-3.31c-4.46,0-8.1,0.92-10.8,2.74c-2.62,1.76-3.89,3.99-3.89,6.81 c0,2.07,0.56,3.61,1.71,4.68c1.21,1.13,2.8,1.91,4.73,2.32c2.08,0.44,5.31,0.94,9.58,1.47c6.07,0.72,11.16,1.74,15.12,3.01 c4.08,1.31,7.42,3.46,9.91,6.38c2.54,2.97,3.82,7,3.82,12c0,4.35-1.3,8.24-3.86,11.56c-2.53,3.28-5.99,5.84-10.28,7.61 C292.37,120.96,287.6,121.85,282.45,121.85z"></path> </g> </g> <g> <g> <path class="st0" d="M392.56,96.34h13.03c-1.48,7.86-5.01,14.23-10.48,18.73c-5.47,4.5-12.51,6.78-20.91,6.78 c-6.82,0-12.91-1.55-18.09-4.6c-5.19-3.06-9.27-7.4-12.14-12.91c-2.85-5.48-4.3-11.71-4.3-18.78c0-7.07,1.45-13.3,4.3-18.78 c2.87-5.5,6.95-9.85,12.14-12.9c5.18-3.05,11.26-4.6,18.09-4.6c8.4,0,15.44,2.28,20.91,6.78c5.47,4.5,9,10.87,10.48,18.73h-13.03 c-0.94-4.34-3.04-7.48-6.26-9.94c-3.23-2.46-7.3-3.72-12.1-3.72c-6.25,0-11.39,2.28-15.27,6.76c-3.93,4.52-5.91,10.38-5.91,17.67 c0,7.29,1.99,13.14,5.91,17.67c3.88,4.48,9.02,6.76,15.27,6.76c4.8,0,8.87-1.25,12.1-3.72 C389.52,103.82,391.62,100.68,392.56,96.34z"></path> </g> <g> <path class="st0" d="M439.9,121.85c-7.85,0-14.27-1.89-19.06-5.62c-4.87-3.79-7.35-9.01-7.35-15.52 c0-13.47,11.28-21.72,25.48-21.72h22.51v-4.51c0-4.24-1.36-7.44-4.17-9.78c-2.82-2.36-6.86-3.55-12-3.55 c-4.55,0-8.34,1.01-11.27,3c-2.91,1.98-4.66,4.55-5.33,7.83l-0.16,2.82h-13.02l0.13-3.14c0.84-7.01,4-12.56,9.39-16.5 c5.33-3.89,12.33-5.87,20.8-5.87c9.04,0,16.15,2.24,21.14,6.67c5.02,4.46,7.57,10.92,7.57,19.2v29.74c0,2.77,1.11,4.01,3.6,4.01 h4.37v12.13h-7.08c-4.66,0-8.07-1-10.15-2.98c-1.57-1.5-2.59-3.53-3.03-6.07C456.86,118.54,449.35,121.85,439.9,121.85z M441.12,90.31c-9.7,0-14.42,2.66-14.42,9.73c0,3.13,1.2,5.57,3.67,7.46c2.51,1.93,5.99,2.9,10.35,2.9 c6.47,0,11.61-1.71,15.28-5.08c3.64-3.35,5.49-7.85,5.49-13.4v-1.62H441.12z"></path> </g> <g> <path class="st0" d="M489.06,121.04V50.1h13.07v8.78c1.82-2.33,3.66-4.27,6.2-5.8c3.3-1.98,7.88-2.98,13.63-2.98h4.1v12.8h-6.54 c-6.28,0-10.62,2.02-13.29,6.17c-2.72,4.23-4.1,9.56-4.1,15.82v36.14H489.06z"></path> </g> <g> <path class="st0" d="M553.19,121.04c-6.74,0-11.65-1.56-14.58-4.63c-2.92-3.06-4.4-7.89-4.4-14.34V33.65h13.07V50.1h18.72v12.13 h-18.72v39.7c0,2.61,0.48,4.45,1.43,5.48c0.93,1,2.66,1.51,5.15,1.51h12.15v12.13H553.19z"></path> </g> </g> <linearGradient id="SVGID_1_" gradientUnits="userSpaceOnUse" x1="24.1146" y1="117.6289" x2="118.7408" y2="23.0027"> <stop offset="0" style="stop-color:#7381FD"></stop> <stop offset="1" style="stop-color:#76C7FF"></stop> </linearGradient> <path class="st1" d="M138.6,49.38v72.38c0,8.69-7.04,15.73-15.73,15.73H50.49c-8.69,0-15.73-7.04-15.73-15.73V49.38 c0-8.69,7.04-15.73,15.73-15.73h72.38C131.56,33.65,138.6,40.69,138.6,49.38z M19.98,3.14c-8.69,0-15.73,7.04-15.73,15.73 c0,8.69,7.04,15.73,15.73,15.73c8.69,0,15.73-7.04,15.73-15.73C35.71,10.18,28.67,3.14,19.98,3.14z"></path> </g> </svg> 